<?xml version="1.0" encoding="utf-8"?>
<!-- Generator: Adobe Illustrator 28.1.0, SVG Export Plug-In . SVG Version: 6.00 Build 0)  -->
<svg version="1.1" id="Layer_1" xmlns="http://www.w3.org/2000/svg" xmlns:xlink="http://www.w3.org/1999/xlink" x="0px" y="0px"
	 viewBox="0 0 800 800" style="enable-background:new 0 0 800 800;" xml:space="preserve">
<style type="text/css">
	.st0{fill:#FF9A15;}
	.st1{display:none;}
	.st2{display:inline;}
	.st3{enable-background:new    ;}
	.st4{fill:none;stroke:#FFFFFF;stroke-width:20;stroke-miterlimit:10;}
	.st5{fill:#FFFFFF;}
	.st6{fill:none;stroke:#FFFFFF;stroke-width:40;stroke-miterlimit:10;}
	.st7{fill:#FFFFFF;stroke:#FFFFFF;stroke-width:20;stroke-miterlimit:10;}
	.st8{fill:#FFFFFF;stroke:#FFFFFF;stroke-width:16;stroke-miterlimit:10;}
</style>
<rect class="st0" width="800" height="800"/>
<g class="st1">
	<g transform="matrix(0.864919, 0, 0, 0.864765, 31.960604, -104.15916)" class="st2">
		<g transform="matrix(1 0 0 1 9.536743e-07 0)" class="st3">
			
				<image style="overflow:visible;enable-background:new    ;" width="620" height="745" xlink:href="1BA5C4E1.png"  transform="matrix(1.3333 0 0 1.3333 12.3174 -40.1493)">
			</image>
		</g>
	</g>
</g>
<g>
	<path class="st4" d="M379.5,202.7c1.8,61.8-20.4,103.6-64.6,107.3c-53.7,4.5-89.8-49-94.4-108.1C216,144.4,228.9,92,283.9,85.2
		C357,76.1,377.7,141.9,379.5,202.7z"/>
	<path class="st5" d="M337.3,196c0.9,38.7,7.8,69.5-26.8,75.6c-33,5.8-48.6-39.1-50.9-76.1c-2.2-35.9,0-70.5,31-73
		C331.6,119.1,336.5,157.9,337.3,196z"/>
	<path class="st4" d="M421,202.7c-1.8,61.8,20.4,103.6,64.6,107.3c53.7,4.5,89.8-49,94.4-108.1c4.5-57.4-8.4-109.8-63.5-116.7
		C443.5,76.1,422.8,141.9,421,202.7z"/>
	<path class="st5" d="M463.2,196c-0.9,38.7-7.8,69.5,26.8,75.6c33,5.8,48.6-39.1,50.9-76.1c2.2-35.9,0-70.5-31-73
		C468.9,119.1,464,157.9,463.2,196z"/>
	<path class="st4" d="M580.3,327.7c-21.2,58.1-13.4,104.8,27.5,122.2c49.6,21.2,100.7-18.2,123.7-72.8
		c22.3-53.1,26.7-106.9-23.4-130.7C641.5,214.8,601.1,270.6,580.3,327.7z"/>
	<path class="st5" d="M622.4,334.7c-13,36.4-29.3,63.5,1.6,80.2c29.5,15.9,58.5-21.8,72.3-56.2c13.4-33.4,22.2-66.9-6.4-79.1
		C652.1,263.5,635.2,298.9,622.4,334.7z"/>
	<path class="st4" d="M219.7,327.7c21.2,58.1,13.4,104.8-27.5,122.2c-49.6,21.2-100.7-18.2-123.7-72.8
		c-22.3-53-26.6-106.8,23.5-130.7C158.5,214.8,198.9,270.6,219.7,327.7z"/>
	<path class="st5" d="M177.6,334.7c13,36.4,29.3,63.5-1.6,80.2c-29.5,15.9-58.5-21.8-72.3-56.2c-13.4-33.4-22.2-66.9,6.4-79.1
		C147.9,263.5,164.8,298.9,177.6,334.7z"/>
	<path class="st6" d="M646.1,610.8c-3.9-68.6-84.3-127.3-204.3-242.7c-11.1-11.1-26.2-16.8-40.9-16.9c-14.6-0.1-29.8,5.8-40.9,16.9
		C240,483.5,159.6,542.2,155.7,610.8C153,727,263.8,715.5,392.9,715.2H408C537.4,715.4,648.8,727.4,646.1,610.8z"/>
</g>
<path class="st7" d="M383.5,446.4L248.1,582.2c-9.9,9.9-8.9,26.2,2.1,34.8l0,0c9.3,7.2,22.5,6.4,30.8-1.9l102.5-102.5
	c9.1-9.1,23.8-9.1,32.9,0L519,615.1c8.3,8.3,21.5,9.1,30.8,1.9l0,0c11-8.6,12-24.9,2.1-34.8L416.5,446.4
	C407.4,437.3,392.6,437.3,383.5,446.4z"/>
<path class="st8" d="M387.7,593l-111,111.3c-7.4,7.4,3.4,9.5,11.6,15.9l0,0c6.9,5.4,16.8,4.8,23-1.4l76.5-76.4
	c6.8-6.8,17.8-6.8,24.5,0l76.5,76.4c6.2,6.2,16,6.8,23,1.4l0,0c8.2-6.4,19-8.6,11.6-15.9L412.3,593
	C405.5,586.2,394.5,586.2,387.7,593z"/>
</svg>
